<svg width="16" height="16" viewBox="0 0 16 16" fill="none" xmlns="http://www.w3.org/2000/svg">
<path fill-rule="evenodd" clip-rule="evenodd" d="M10.5303 3.78033C10.2374 4.07322 9.76256 4.07322 9.46967 3.78033L8 2.31066L6.53033 3.78033C6.23744 4.07322 5.76256 4.07322 5.46967 3.78033C5.17678 3.48744 5.17678 3.01256 5.46967 2.71967L8 0.18934L10.5303 2.71967C10.8232 3.01256 10.8232 3.48744 10.5303 3.78033Z" fill="white"/>
<path fill-rule="evenodd" clip-rule="evenodd" d="M5.46967 12.2197C5.76256 11.9268 6.23744 11.9268 6.53033 12.2197L8 13.6893L9.46967 12.2197C9.76256 11.9268 10.2374 11.9268 10.5303 12.2197C10.8232 12.5126 10.8232 12.9874 10.5303 13.2803L8 15.8107L5.46967 13.2803C5.17678 12.9874 5.17678 12.5126 5.46967 12.2197Z" fill="white"/>
<path fill-rule="evenodd" clip-rule="evenodd" d="M4.28033 11.0303C3.98744 11.3232 3.51256 11.3232 3.21967 11.0303L0.189338 8L3.21967 4.96967C3.51256 4.67678 3.98744 4.67678 4.28033 4.96967C4.57322 5.26256 4.57322 5.73744 4.28033 6.03033L2.31066 8L4.28033 9.96967C4.57322 10.2626 4.57322 10.7374 4.28033 11.0303Z" fill="white"/>
<path fill-rule="evenodd" clip-rule="evenodd" d="M11.7197 4.96967C12.0126 4.67678 12.4874 4.67678 12.7803 4.96967L15.8107 8L12.7803 11.0303C12.4874 11.3232 12.0126 11.3232 11.7197 11.0303C11.4268 10.7374 11.4268 10.2626 11.7197 9.96967L13.6893 8L11.7197 6.03033C11.4268 5.73744 11.4268 5.26256 11.7197 4.96967Z" fill="white"/>
<path fill-rule="evenodd" clip-rule="evenodd" d="M1.25 8C1.25 7.58579 1.58579 7.25 2 7.25H14C14.4142 7.25 14.75 7.58579 14.75 8C14.75 8.41421 14.4142 8.75 14 8.75H2C1.58579 8.75 1.25 8.41421 1.25 8Z" fill="white"/>
<path fill-rule="evenodd" clip-rule="evenodd" d="M7.25 7.5L7.25 2C7.25 1.58579 7.58579 1.25 8 1.25C8.41421 1.25 8.75 1.58579 8.75 2L8.75 7.5C8.75 7.91421 8.41421 8.25 8 8.25C7.58579 8.25 7.25 7.91421 7.25 7.5Z" fill="white"/>
<path fill-rule="evenodd" clip-rule="evenodd" d="M8.75 8L8.75 13.5C8.75 13.9142 8.41421 14.25 8 14.25C7.58579 14.25 7.25 13.9142 7.25 13.5L7.25 8C7.25 7.58579 7.58579 7.25 8 7.25C8.41421 7.25 8.75 7.58579 8.75 8Z" fill="white"/>
</svg>
