<svg width="16" height="16" viewBox="0 0 16 16" fill="none" xmlns="http://www.w3.org/2000/svg">
<g clip-path="url(#clip0_414_2292)">
<path fill-rule="evenodd" clip-rule="evenodd" d="M5.99854 6.75013C5.58432 6.75013 5.24854 6.41434 5.24854 6.00013L5.24854 2.75013L1.99854 2.75013C1.58432 2.75013 1.24854 2.41434 1.24854 2.00013C1.24854 1.58592 1.58432 1.25013 1.99854 1.25013L6.74854 1.25013L6.74854 6.00013C6.74854 6.41434 6.41275 6.75013 5.99854 6.75013Z" fill="white"/>
<path fill-rule="evenodd" clip-rule="evenodd" d="M12.2355 4.19131C11.3035 3.25929 10.1338 2.71377 8.92161 2.55293C8.511 2.49845 8.22229 2.12142 8.27678 1.7108C8.33126 1.30019 8.70829 1.01149 9.11891 1.06597C10.6464 1.26864 12.123 1.95747 13.2962 3.13065C16.1336 5.96811 16.1336 10.5686 13.2962 13.406C10.4587 16.2435 5.85827 16.2435 3.0208 13.406C1.48514 11.8704 0.76848 9.92214 1.02066 7.65657C1.20008 6.04473 2.15574 4.68797 2.98773 3.77695C3.41199 3.3124 3.82462 2.94146 4.13157 2.68614C4.28547 2.55813 4.41395 2.45824 4.50554 2.38924C4.55136 2.35472 4.58804 2.32786 4.61416 2.30902L4.64527 2.28678L4.65457 2.28024L4.6576 2.27812L4.6587 2.27735C4.65889 2.27722 4.65952 2.27678 5.08692 2.89309L4.65952 2.27678C4.9999 2.04074 5.46718 2.12531 5.70323 2.46569C5.93909 2.80581 5.85482 3.27264 5.51509 3.50886C5.51483 3.50904 5.51535 3.50868 5.51509 3.50886M5.51509 3.50886L5.51126 3.51155L5.49183 3.52545C5.47365 3.53857 5.44527 3.55931 5.40808 3.58733C5.33364 3.6434 5.22425 3.72834 5.09079 3.83935C4.82302 4.06208 4.46296 4.38595 4.09534 4.78848C3.34361 5.61162 2.63884 6.67809 2.51145 7.82251C2.31018 9.63069 2.86494 11.1288 4.08146 12.3454C6.33314 14.597 9.98384 14.597 12.2355 12.3454C14.4872 10.0937 14.4872 6.44299 12.2355 4.19131" fill="white"/>
</g>
<defs>
<clipPath id="clip0_414_2292">
<rect width="16" height="16" fill="white"/>
</clipPath>
</defs>
</svg>
