<svg width="16" height="16" viewBox="0 0 16 16" fill="none" xmlns="http://www.w3.org/2000/svg">
<rect x="1" y="9" width="6" height="6" rx="1" fill="white"/>
<path fill-rule="evenodd" clip-rule="evenodd" d="M1.25 3C1.25 2.0335 2.0335 1.25 3 1.25H13C13.9665 1.25 14.75 2.0335 14.75 3V13C14.75 13.9665 13.9665 14.75 13 14.75H9C8.58579 14.75 8.25 14.4142 8.25 14C8.25 13.5858 8.58579 13.25 9 13.25H13C13.1381 13.25 13.25 13.1381 13.25 13V3C13.25 2.86193 13.1381 2.75 13 2.75H3C2.86193 2.75 2.75 2.86193 2.75 3V7C2.75 7.41421 2.41421 7.75 2 7.75C1.58579 7.75 1.25 7.41421 1.25 7V3Z" fill="white"/>
</svg>
